<?xml version="1.0"?>
<svg xmlns="http://www.w3.org/2000/svg" xmlns:xlink="http://www.w3.org/1999/xlink" xmlns:svgjs="http://svgjs.com/svgjs" version="1.1" width="512" height="512" x="0" y="0" viewBox="0 0 24 24" style="enable-background:new 0 0 512 512" xml:space="preserve"><g><g xmlns="http://www.w3.org/2000/svg"><path d="M0,12A12,12,0,1,1,12,24,12.013,12.013,0,0,1,0,12Zm21,0a9,9,0,1,0-9,9A9.01,9.01,0,0,0,21,12Z" fill="#f2f2f2" data-original="#000000"/><path d="M7.992,12a3.491,3.491,0,0,1,.991-2.45l3.05-3.1a1.5,1.5,0,1,1,2.139,2.1l-3.043,3.1a.505.505,0,0,0,0,.705l3.044,3.1a1.5,1.5,0,1,1-2.139,2.1l-3.052-3.1A3.494,3.494,0,0,1,7.992,12Z" fill="#f2f2f2" data-original="#000000"/></g></g></svg>
